<svg width="25" height="17" viewBox="0 0 25 17" fill="none" xmlns="http://www.w3.org/2000/svg">
<path d="M22.4259 14.018L20.6568 2.58717C20.4898 1.5086 19.7015 0.661142 18.6899 0.385263C18.5549 0.348447 18.4154 0.33082 18.2755 0.330234L18.2163 0.32999C17.6296 0.326962 17.0602 0.528476 16.606 0.899814L16.5876 0.914804C16.1215 1.29591 15.5419 1.50094 14.9444 1.49762C14.3034 1.494 10.6969 1.494 10.0559 1.49762C10.0136 1.49786 9.9714 1.49674 9.92927 1.49493C8.87414 1.49493 7.8237 1.49586 7.50524 1.49762C6.90773 1.50099 6.32819 1.29591 5.86203 0.914804L5.84367 0.899814C5.60886 0.707822 5.31471 0.544101 5.01037 0.434726C4.83752 0.372616 4.65593 0.340634 4.47228 0.339267C3.13249 0.329209 1.99069 1.30274 1.78625 2.62369L0.0280935 13.9839C-0.121467 14.9503 0.343084 15.8518 1.10915 16.3248H1.37712C2.0361 16.0263 2.60876 15.545 3.01764 14.9218L4.54909 12.5878C4.88854 12.0704 5.46574 11.7587 6.08454 11.7587H8.63522H8.90319H9.30754V11.7522C9.30754 11.6978 9.35163 11.6537 9.40602 11.6537H15.5943C15.6487 11.6537 15.6928 11.6978 15.6928 11.7522V11.7587H16.3651C16.9839 11.7587 17.5611 12.0704 17.9006 12.5878L19.432 14.9217C19.8459 15.5525 20.4035 16.0272 21.0726 16.3247L21.37 16.377C22.0876 15.8748 22.5692 14.9437 22.4259 14.018Z" fill="#EAF2FF"/>
<path d="M5.57567 0.899813L5.59402 0.914804C6.06019 1.29591 6.63978 1.50094 7.23724 1.49762C7.5827 1.49566 8.78963 1.49478 9.92942 1.49493C9.37698 1.47081 8.84578 1.26895 8.41258 0.914804L8.39422 0.899813C7.93997 0.528476 7.37054 0.326962 6.78387 0.32999L4.4408 0.339218C4.38079 0.339462 4.32137 0.342343 4.26224 0.346445C4.74207 0.40079 5.19861 0.591562 5.57567 0.899813Z" fill="#C9E0FD"/>
<path d="M4.2812 12.5877L2.74975 14.9217C2.34081 15.5449 1.76821 16.0262 1.10922 16.3247C1.46245 16.5427 1.87958 16.6698 2.33041 16.6698C3.6353 16.6698 4.85248 16.0127 5.56835 14.9217L7.0998 12.5877C7.43925 12.0703 8.01645 11.7587 8.6353 11.7587H5.81669C5.19785 11.7587 4.62065 12.0703 4.2812 12.5877Z" fill="#C9E0FD"/>
<path d="M24.9724 13.9839L23.2142 2.62369C23.0113 1.3131 21.8857 0.344443 20.5595 0.339218L18.2165 0.32999C18.1168 0.329453 18.0177 0.335361 17.9195 0.346445C19.167 0.433456 20.2019 1.37237 20.3956 2.62364L22.1538 13.9838C22.3033 14.9502 21.8388 15.8517 21.0727 16.3247C21.5673 16.5487 22.1106 16.6698 22.6701 16.6698C24.0988 16.6699 25.1909 15.3958 24.9724 13.9839Z" fill="#C9E0FD"/>
<path d="M9.30762 11.7587H15.6929V10.8979C15.6929 10.4152 15.3016 10.0239 14.8189 10.0239H10.1816C9.69893 10.0239 9.30762 10.4152 9.30762 10.8979V11.7587Z" fill="#9BC4F9"/>
<path d="M18.0929 4.79524C18.6673 4.79524 19.133 4.32955 19.133 3.7551C19.133 3.18065 18.6673 2.71497 18.0929 2.71497C17.5184 2.71497 17.0527 3.18065 17.0527 3.7551C17.0527 4.32955 17.5184 4.79524 18.0929 4.79524Z" fill="#60A0F7"/>
<path d="M18.0929 9.58674C18.6673 9.58674 19.133 9.12106 19.133 8.54661C19.133 7.97215 18.6673 7.50647 18.0929 7.50647C17.5184 7.50647 17.0527 7.97215 17.0527 8.54661C17.0527 9.12106 17.5184 9.58674 18.0929 9.58674Z" fill="#EFD133"/>
<path d="M21.0756 5.29294C20.9085 5.1782 20.7064 5.11072 20.4887 5.11072C19.9151 5.11072 19.4485 5.57732 19.4485 6.15086C19.4485 6.72439 19.9151 7.19099 20.4887 7.19099C20.8211 7.19099 21.1168 7.03367 21.3074 6.79026L21.0756 5.29294Z" fill="#E278B1"/>
<path d="M21.5288 6.1509C21.5288 5.68118 21.2156 5.28362 20.7872 5.15491L21.0743 7.00979C21.3484 6.82229 21.5288 6.50735 21.5288 6.1509Z" fill="#DB578E"/>
<path d="M15.6971 7.19099C16.2716 7.19099 16.7373 6.72531 16.7373 6.15086C16.7373 5.5764 16.2716 5.11072 15.6971 5.11072C15.1227 5.11072 14.657 5.5764 14.657 6.15086C14.657 6.72531 15.1227 7.19099 15.6971 7.19099Z" fill="#B3E59F"/>
<path d="M8.72617 5.21907H7.49668V3.98958C7.49668 3.47493 7.07949 3.05774 6.56484 3.05774C6.05019 3.05774 5.63301 3.47493 5.63301 3.98958V5.21907H4.40352C3.88887 5.21907 3.47168 5.63626 3.47168 6.1509C3.47168 6.66555 3.88887 7.08274 4.40352 7.08274H5.63301V8.31223C5.63301 8.82688 6.05019 9.24407 6.56484 9.24407C7.07949 9.24407 7.49668 8.82688 7.49668 8.31223V7.08274H8.72617C9.24082 7.08274 9.65801 6.66555 9.65801 6.1509C9.65806 5.6363 9.24087 5.21907 8.72617 5.21907Z" fill="#60A0F7"/>
</svg>
