<svg width="19" height="12" viewBox="0 0 19 12" fill="none" xmlns="http://www.w3.org/2000/svg">
<path d="M12.9545 5.14286C14.3882 5.14286 15.5368 3.99429 15.5368 2.57143C15.5368 1.14857 14.3882 0 12.9545 0C11.5209 0 10.3636 1.14857 10.3636 2.57143C10.3636 3.99429 11.5209 5.14286 12.9545 5.14286ZM6.04545 5.14286C7.47909 5.14286 8.62773 3.99429 8.62773 2.57143C8.62773 1.14857 7.47909 0 6.04545 0C4.61182 0 3.45455 1.14857 3.45455 2.57143C3.45455 3.99429 4.61182 5.14286 6.04545 5.14286ZM6.04545 6.85714C4.03318 6.85714 0 7.86 0 9.85714V12H12.0909V9.85714C12.0909 7.86 8.05773 6.85714 6.04545 6.85714ZM12.9545 6.85714C12.7041 6.85714 12.4191 6.87429 12.1168 6.9C13.1186 7.62 13.8182 8.58857 13.8182 9.85714V12H19V9.85714C19 7.86 14.9668 6.85714 12.9545 6.85714Z" fill="white"/>
</svg>
