<svg width="18" height="26" viewBox="0 0 18 26" fill="none" xmlns="http://www.w3.org/2000/svg">
<path d="M12.0885 22.8551H5.91082C5.62652 22.8551 5.396 22.6247 5.396 22.3403V21.7225C5.396 21.4382 5.62647 21.2078 5.91082 21.2078H12.0885C12.3728 21.2078 12.6033 21.4382 12.6033 21.7225V22.3403C12.6033 22.6246 12.3728 22.8551 12.0885 22.8551Z" fill="#4172CA"/>
<path d="M12.0887 21.2078H10.0295C10.3138 21.2078 10.5443 21.4382 10.5443 21.7226V22.3403C10.5443 22.6246 10.3138 22.8551 10.0295 22.8551H12.0887C12.373 22.8551 12.6035 22.6246 12.6035 22.3403V21.7225C12.6035 21.4382 12.373 21.2078 12.0887 21.2078Z" fill="#3A67C1"/>
<path d="M9.00003 4.58418e-10C4.02203 -4.94689e-05 0.00991199 4.00371 1.81115e-05 8.98171C-0.00641291 12.2225 1.70033 15.0649 4.26507 16.6546C4.89467 17.0448 5.31961 17.6932 5.41899 18.4272L5.57274 19.5625H12.4271L12.5808 18.4275C12.679 17.7023 13.0899 17.0518 13.7131 16.668C16.2851 15.0838 17.9998 12.2422 17.9998 8.99992C17.9998 4.02943 13.9705 4.94699e-05 9.00003 4.58418e-10Z" fill="#F7E365"/>
<path d="M13.9011 1.45081C15.2299 3.08478 16.0268 5.16863 16.0268 7.43888C16.0268 12.6846 11.7743 16.937 6.52863 16.937C5.75745 16.937 5.00804 16.8444 4.29019 16.671C4.90584 17.0628 5.32108 17.7031 5.41913 18.4272L5.57288 19.5625H12.4273L12.581 18.4275C12.6792 17.7022 13.0901 17.0518 13.7132 16.6679C16.2852 15.0838 18 12.2422 18 8.99988C18 5.83716 16.3683 3.05589 13.9011 1.45081Z" fill="#F3D332"/>
<path d="M12.6037 21.2099H5.39651C5.11221 21.2099 4.88168 20.9794 4.88168 20.6951V20.0773C4.88168 19.793 5.11216 19.5625 5.39651 19.5625H12.6037C12.888 19.5625 13.1185 19.793 13.1185 20.0773V20.6951C13.1185 20.9794 12.888 21.2099 12.6037 21.2099Z" fill="#4172CA"/>
<path d="M12.6034 19.5625H10.5442C10.8285 19.5625 11.059 19.793 11.059 20.0773V20.6951C11.059 20.9794 10.8285 21.2099 10.5442 21.2099H12.6034C12.8877 21.2099 13.1182 20.9794 13.1182 20.6951V20.0773C13.1182 19.793 12.8877 19.5625 12.6034 19.5625Z" fill="#3A67C1"/>
<path d="M10.3096 25.3283H7.68978C7.20542 25.3283 6.78657 24.9908 6.68367 24.5175L6.32269 22.8573H11.6767L11.3157 24.5175C11.2128 24.9908 10.7939 25.3283 10.3096 25.3283Z" fill="#DDEBFD"/>
<path d="M10.2869 22.8573L9.92593 24.5175C9.82304 24.9908 9.40418 25.3283 8.91983 25.3283H10.3098C10.7942 25.3283 11.213 24.9908 11.3159 24.5175L11.6769 22.8573H10.2869Z" fill="#BED9FD"/>
<path d="M8.99398 16.187C9.51068 16.187 9.92955 15.7682 9.92955 15.2515C9.92955 14.7348 9.51068 14.3159 8.99398 14.3159C8.47728 14.3159 8.05841 14.7348 8.05841 15.2515C8.05841 15.7682 8.47728 16.187 8.99398 16.187Z" fill="#EDF6FF"/>
<path d="M8.99401 12.4449C8.4773 12.4449 8.05844 12.026 8.05844 11.5093V9.70891C8.05844 9.1922 8.4773 8.77334 8.99401 8.77334C9.52877 8.77334 10.0264 8.55939 10.3953 8.1708C10.7639 7.78257 10.9516 7.27333 10.9238 6.73684C10.8716 5.73211 10.0417 4.92917 9.03432 4.90894C8.05736 4.88732 7.21514 5.60329 7.08029 6.57022C7.06782 6.65912 7.06154 6.75014 7.06154 6.84092C7.06154 7.35763 6.64268 7.77648 6.12602 7.77648C5.60937 7.77648 5.19046 7.35763 5.19046 6.84092C5.19046 6.66377 5.20278 6.48563 5.22717 6.3114C5.49297 4.40658 7.14613 2.99883 9.07197 3.03816C11.0553 3.07813 12.6895 4.66016 12.7923 6.63987C12.847 7.69382 12.4776 8.69513 11.7522 9.45914C11.2557 9.98208 10.6194 10.3502 9.92952 10.5264V11.5093C9.92957 12.0261 9.51071 12.4449 8.99401 12.4449Z" fill="#EDF6FF"/>
</svg>
