<svg width="26" height="14" viewBox="0 0 26 14" fill="none" xmlns="http://www.w3.org/2000/svg">
<path d="M13.7682 4.66667C12.7991 1.94833 10.1755 0 7.09091 0C3.17909 0 0 3.13833 0 7C0 10.8617 3.17909 14 7.09091 14C10.1755 14 12.7991 12.0517 13.7682 9.33333H18.9091V14H23.6364V9.33333H26V4.66667H13.7682ZM7.09091 9.33333C5.79091 9.33333 4.72727 8.28333 4.72727 7C4.72727 5.71667 5.79091 4.66667 7.09091 4.66667C8.39091 4.66667 9.45455 5.71667 9.45455 7C9.45455 8.28333 8.39091 9.33333 7.09091 9.33333Z" fill="white"/>
</svg>
