<svg width="23" height="23" viewBox="0 0 23 23" fill="none" xmlns="http://www.w3.org/2000/svg">
<g clip-path="url(#clip0_42_67267)">
<path d="M15.5429 0.674195V19.6312C15.5429 20.0085 15.2465 20.3051 14.8691 20.3051H9.47846C9.10101 20.3051 8.80463 20.0085 8.80463 19.6312L0.718689 0.674195C0.718689 0.296745 1.01507 0.000366211 1.39252 0.000366211H14.8691C15.2465 0.000366211 15.5429 0.296745 15.5429 0.674195Z" fill="#07485E"/>
<path d="M15.5429 0.674195V19.6312C15.5429 20.0085 15.2466 20.3051 14.8691 20.3051H9.47849C9.10104 20.3051 8.80466 20.0085 8.80466 19.6312L6.78317 14.9144V0.000366211H14.8691C15.2466 0.000366211 15.5429 0.296745 15.5429 0.674195Z" fill="#03232E"/>
<path d="M9.77483 4.11071L1.6889 0.0677447C1.48692 -0.0266614 1.23073 -0.0266614 1.04209 0.094768C0.839943 0.229358 0.718689 0.445018 0.718689 0.67419V19.6312C0.718689 19.9276 0.907326 20.1838 1.17686 20.2645L6.78314 22.1379L9.2628 22.9598C9.46126 23.0393 9.71552 22.9944 9.86924 22.8791C10.0445 22.7443 10.1523 22.5422 10.1523 22.3265V4.71716C10.1523 4.46114 10.004 4.23197 9.77483 4.11071Z" fill="#FF8859"/>
<path d="M10.1523 4.71713V22.3265C10.1523 22.5422 10.0444 22.7443 9.86927 22.8791C9.71696 22.9933 9.46322 23.0402 9.26283 22.9598L6.78317 22.1379V2.61475L9.77486 4.11068C10.004 4.23193 10.1523 4.46111 10.1523 4.71713Z" fill="#FF3939"/>
<path d="M17.2467 14.8348C17.0275 14.7178 16.8906 14.4895 16.8906 14.2406V13.5668H12.1738C11.8013 13.5668 11.5 13.2653 11.5 12.893V10.1977C11.5 9.82514 11.8013 9.52384 12.1738 9.52384H16.8906V8.85002C16.8906 8.60119 17.0275 8.3729 17.2467 8.25568C17.4651 8.13934 17.7317 8.1525 17.9382 8.28937L21.9812 10.9847C22.1688 11.1096 22.2813 11.3202 22.2813 11.5453C22.2813 11.7703 22.1688 11.9809 21.9812 12.1058L17.9382 14.8011C17.7292 14.9406 17.4627 14.9508 17.2467 14.8348Z" fill="#FF3939"/>
<path d="M7.457 10.1976V12.8929C7.457 13.2702 7.16062 13.5668 6.78317 13.5668C6.40572 13.5668 6.10934 13.2702 6.10934 12.8929V10.1976C6.10934 9.82018 6.40572 9.5238 6.78317 9.5238C7.16062 9.5238 7.457 9.82018 7.457 10.1976Z" fill="#FFF5F5"/>
<path d="M7.457 10.1976V12.8929C7.457 13.2702 7.16062 13.5668 6.78317 13.5668V9.5238C7.16062 9.5238 7.457 9.82018 7.457 10.1976Z" fill="#EFE2DD"/>
</g>
<defs>
<clipPath id="clip0_42_67267">
<rect width="23" height="23" fill="white"/>
</clipPath>
</defs>
</svg>
