<svg width="28" height="29" viewBox="0 0 28 29" fill="none" xmlns="http://www.w3.org/2000/svg">
<mask id="mask0_42_64013" style="mask-type:alpha" maskUnits="userSpaceOnUse" x="1" y="4" width="26" height="25">
<path d="M13.6716 29C20.5357 29 26.1001 23.4355 26.1001 16.5714C26.1001 9.70728 20.5357 4.14282 13.6716 4.14282C6.80744 4.14282 1.24298 9.70728 1.24298 16.5714C1.24298 23.4355 6.80744 29 13.6716 29Z" fill="white"/>
</mask>
<g mask="url(#mask0_42_64013)">
<path d="M13.6716 29C20.5357 29 26.1001 23.4355 26.1001 16.5714C26.1001 9.70728 20.5357 4.14282 13.6716 4.14282C6.80744 4.14282 1.24298 9.70728 1.24298 16.5714C1.24298 23.4355 6.80744 29 13.6716 29Z" fill="#E6E6E6"/>
<path d="M26.1001 4.14282H1.24298V29H26.1001V4.14282Z" fill="url(#paint0_linear_42_64013)"/>
</g>
<mask id="mask1_42_64013" style="mask-type:alpha" maskUnits="userSpaceOnUse" x="0" y="0" width="28" height="29">
<path d="M1.24286 16.5714C1.24286 23.4355 6.80732 29 13.6714 29C20.5355 29 26.1 23.4355 26.1 16.5714H27.3429V0H0V16.5714H1.24286Z" fill="white"/>
</mask>
<g mask="url(#mask1_42_64013)">
<mask id="mask2_42_64013" style="mask-type:alpha" maskUnits="userSpaceOnUse" x="3" y="3" width="22" height="26">
<path d="M16.157 18.7061V20.6107H16.5713C20.6898 20.6107 24.0285 23.9493 24.0285 28.0678V28.9999H3.31418V28.0678C3.31418 23.9493 6.65285 20.6107 10.7713 20.6107H11.1856V18.7061C9.40031 17.858 8.11702 16.1247 7.90292 14.0734C7.29964 13.9881 6.83561 13.4696 6.83561 12.8428V11.3928C6.83561 10.777 7.28351 10.2657 7.87132 10.1671V9.52852C7.87132 6.32526 10.4681 3.72852 13.6713 3.72852C16.8746 3.72852 19.4713 6.32526 19.4713 9.52852V10.1671C20.0591 10.2657 20.507 10.777 20.507 11.3928V12.8428C20.507 13.4696 20.043 13.9881 19.4397 14.0734C19.2256 16.1247 17.9423 17.858 16.157 18.7061Z" fill="white"/>
</mask>
<g mask="url(#mask2_42_64013)">
<path d="M16.157 18.7061V20.6107H16.5713C20.6898 20.6107 24.0285 23.9493 24.0285 28.0678V28.9999H3.31418V28.0678C3.31418 23.9493 6.65285 20.6107 10.7713 20.6107H11.1856V18.7061C9.40031 17.858 8.11702 16.1247 7.90292 14.0734C7.29964 13.9881 6.83561 13.4696 6.83561 12.8428V11.3928C6.83561 10.777 7.28351 10.2657 7.87132 10.1671V9.52852C7.87132 6.32526 10.4681 3.72852 13.6713 3.72852C16.8746 3.72852 19.4713 6.32526 19.4713 9.52852V10.1671C20.0591 10.2657 20.507 10.777 20.507 11.3928V12.8428C20.507 13.4696 20.043 13.9881 19.4397 14.0734C19.2256 16.1247 17.9423 17.858 16.157 18.7061Z" fill="#D0C6AC"/>
<path d="M27.3431 3.72852H0.000213623V28.9999H27.3431V3.72852Z" fill="#EDB98A"/>
<path fill-rule="evenodd" clip-rule="evenodd" d="M19.4715 11.9106V14.2928C19.4715 17.496 16.8748 20.0928 13.6715 20.0928C10.4683 20.0928 7.87152 17.496 7.87152 14.2928V11.9106V13.4642C7.87152 16.6675 10.4683 19.2642 13.6715 19.2642C16.8748 19.2642 19.4715 16.6675 19.4715 13.4642V11.9106Z" fill="black" fill-opacity="0.1"/>
</g>
<mask id="mask3_42_64013" style="mask-type:alpha" maskUnits="userSpaceOnUse" x="3" y="20" width="22" height="9">
<path fill-rule="evenodd" clip-rule="evenodd" d="M17.1887 20.6414C21.0183 20.9552 24.0285 24.1627 24.0285 28.0733V29.0001H3.31418V28.0733C3.31418 24.1273 6.37906 20.8972 10.2582 20.6335C10.255 20.6722 10.2535 20.7112 10.2535 20.7504C10.2535 21.9791 11.8069 22.9751 13.7231 22.9751C15.6393 22.9751 17.1927 21.9791 17.1927 20.7504C17.1927 20.7138 17.1914 20.6775 17.1887 20.6414Z" fill="white"/>
</mask>
<g mask="url(#mask3_42_64013)">
<path fill-rule="evenodd" clip-rule="evenodd" d="M17.1887 20.6414C21.0183 20.9552 24.0285 24.1627 24.0285 28.0733V29.0001H3.31418V28.0733C3.31418 24.1273 6.37906 20.8972 10.2582 20.6335C10.255 20.6722 10.2535 20.7112 10.2535 20.7504C10.2535 21.9791 11.8069 22.9751 13.7231 22.9751C15.6393 22.9751 17.1927 21.9791 17.1927 20.7504C17.1927 20.7138 17.1914 20.6775 17.1887 20.6414Z" fill="#E6E6E6"/>
<path d="M27.3431 17.6072H0.000213623V29H27.3431V17.6072Z" fill="#E6E6E6"/>
<g opacity="0.6">
<g opacity="0.6">
<path opacity="0.6" d="M13.7234 23.6932C15.9905 23.6932 17.8284 22.4452 17.8284 20.9057C17.8284 19.3662 15.9905 18.1182 13.7234 18.1182C11.4562 18.1182 9.61829 19.3662 9.61829 20.9057C9.61829 22.4452 11.4562 23.6932 13.7234 23.6932Z" fill="black" fill-opacity="0.16"/>
</g>
</g>
</g>
<path fill-rule="evenodd" clip-rule="evenodd" d="M12.2215 15.4321C12.2215 16.2329 12.8707 16.8821 13.6715 16.8821C14.4723 16.8821 15.1215 16.2329 15.1215 15.4321" fill="black" fill-opacity="0.7"/>
<path fill-rule="evenodd" clip-rule="evenodd" d="M12.428 13.4641C12.428 13.9217 12.9845 14.2927 13.6709 14.2927C14.3573 14.2927 14.9138 13.9217 14.9138 13.4641" fill="black" fill-opacity="0.16"/>
<path d="M10.9787 12.2214C11.3219 12.2214 11.6002 11.9431 11.6002 11.5999C11.6002 11.2567 11.3219 10.9785 10.9787 10.9785C10.6355 10.9785 10.3573 11.2567 10.3573 11.5999C10.3573 11.9431 10.6355 12.2214 10.9787 12.2214Z" fill="black" fill-opacity="0.6"/>
<path d="M16.3644 12.2214C16.7076 12.2214 16.9858 11.9431 16.9858 11.5999C16.9858 11.2567 16.7076 10.9785 16.3644 10.9785C16.0212 10.9785 15.743 11.2567 15.743 11.5999C15.743 11.9431 16.0212 12.2214 16.3644 12.2214Z" fill="black" fill-opacity="0.6"/>
<path d="M9.49029 10.2699C9.89577 9.69938 11.0074 9.37944 11.9649 9.61458C12.076 9.64187 12.1882 9.57392 12.2155 9.46282C12.2428 9.35172 12.1748 9.23954 12.0637 9.21225C10.9517 8.93917 9.66449 9.30965 9.1526 10.0299C9.08633 10.1232 9.1082 10.2525 9.20145 10.3188C9.2947 10.385 9.42402 10.3632 9.49029 10.2699Z" fill="black" fill-opacity="0.6"/>
<path d="M17.8526 10.2699C17.4471 9.69938 16.3355 9.37944 15.378 9.61458C15.2669 9.64187 15.1547 9.57392 15.1274 9.46282C15.1001 9.35172 15.1681 9.23954 15.2792 9.21225C16.3912 8.93917 17.6784 9.30965 18.1903 10.0299C18.2566 10.1232 18.2347 10.2525 18.1414 10.3188C18.0482 10.385 17.9189 10.3632 17.8526 10.2699Z" fill="black" fill-opacity="0.6"/>
<mask id="mask4_42_64013" style="mask-type:alpha" maskUnits="userSpaceOnUse" x="0" y="0" width="28" height="29">
<path d="M27.3429 0H0V29H27.3429V0Z" fill="white"/>
</mask>
<g mask="url(#mask4_42_64013)">
<mask id="mask5_42_64013" style="mask-type:alpha" maskUnits="userSpaceOnUse" x="7" y="10" width="13" height="11">
<path fill-rule="evenodd" clip-rule="evenodd" d="M15.8481 17.2062C15.4476 17.7853 15.148 17.3944 14.7213 17.0764C14.4643 16.8849 14.0815 16.6467 13.7236 16.6584C13.3655 16.6467 12.9828 16.8849 12.7258 17.0764C12.2991 17.3944 11.9995 17.7853 11.599 17.2062C11.2983 16.7715 11.4241 16.0404 11.705 15.6291C12.1047 15.0438 12.6469 15.3269 13.2531 15.2601C13.418 15.242 13.5836 15.1962 13.7236 15.1213C13.8636 15.1962 14.0291 15.242 14.194 15.2601C14.8003 15.3269 15.3424 15.0438 15.7421 15.6291C16.023 16.0404 16.1488 16.7715 15.8481 17.2062ZM19.5118 10.1499C19.1571 11.6077 18.9942 13.0948 18.737 14.5694C18.6834 14.8768 18.6247 15.1831 18.5624 15.489C18.5494 15.5532 18.5365 15.7917 18.4732 15.8219C18.2815 15.9135 17.8907 15.4265 17.7863 15.3166C17.5239 15.0405 17.2637 14.7619 16.9441 14.5452C16.2984 14.1074 15.5424 13.8485 14.7557 13.7871C14.4266 13.7614 13.9815 13.8062 13.6713 13.9935C13.3611 13.8062 12.9161 13.7614 12.5869 13.7871C11.8002 13.8485 11.0442 14.1074 10.3985 14.5452C10.0789 14.7619 9.81881 15.0405 9.55638 15.3166C9.4519 15.4265 9.06118 15.9135 8.86946 15.8219C8.80617 15.7917 8.79327 15.5532 8.78019 15.489C8.7179 15.1831 8.65923 14.8768 8.60564 14.5694C8.3485 13.0948 8.18553 11.6077 7.83084 10.1499C7.72764 10.1499 7.6371 12.0916 7.62558 12.2726C7.57871 13.0073 7.52398 13.7258 7.59392 14.4612C7.71449 15.7298 7.84019 17.3206 8.80684 18.2893C9.68029 19.1647 10.9485 19.3477 12.0423 19.9003C12.1831 19.9714 12.3699 20.0592 12.5714 20.1312C12.7836 20.2931 13.2045 20.4035 13.6894 20.4035C14.1979 20.4035 14.6361 20.282 14.8369 20.107C15.0131 20.0402 15.175 19.9636 15.3004 19.9003C16.3941 19.3476 17.6623 19.1647 18.5358 18.2893C19.5024 17.3206 19.6281 15.7298 19.7487 14.4612C19.8186 13.7258 19.7639 13.0073 19.7171 12.2726C19.7055 12.0916 19.615 10.1499 19.5118 10.1499Z" fill="white"/>
</mask>
<g mask="url(#mask5_42_64013)">
<path fill-rule="evenodd" clip-rule="evenodd" d="M15.8481 17.2062C15.4476 17.7853 15.148 17.3944 14.7213 17.0764C14.4643 16.8849 14.0815 16.6467 13.7236 16.6584C13.3655 16.6467 12.9828 16.8849 12.7258 17.0764C12.2991 17.3944 11.9995 17.7853 11.599 17.2062C11.2983 16.7715 11.4241 16.0404 11.705 15.6291C12.1047 15.0438 12.6469 15.3269 13.2531 15.2601C13.418 15.242 13.5836 15.1962 13.7236 15.1213C13.8636 15.1962 14.0291 15.242 14.194 15.2601C14.8003 15.3269 15.3424 15.0438 15.7421 15.6291C16.023 16.0404 16.1488 16.7715 15.8481 17.2062ZM19.5118 10.1499C19.1571 11.6077 18.9942 13.0948 18.737 14.5694C18.6834 14.8768 18.6247 15.1831 18.5624 15.489C18.5494 15.5532 18.5365 15.7917 18.4732 15.8219C18.2815 15.9135 17.8907 15.4265 17.7863 15.3166C17.5239 15.0405 17.2637 14.7619 16.9441 14.5452C16.2984 14.1074 15.5424 13.8485 14.7557 13.7871C14.4266 13.7614 13.9815 13.8062 13.6713 13.9935C13.3611 13.8062 12.9161 13.7614 12.5869 13.7871C11.8002 13.8485 11.0442 14.1074 10.3985 14.5452C10.0789 14.7619 9.81881 15.0405 9.55638 15.3166C9.4519 15.4265 9.06118 15.9135 8.86946 15.8219C8.80617 15.7917 8.79327 15.5532 8.78019 15.489C8.7179 15.1831 8.65923 14.8768 8.60564 14.5694C8.3485 13.0948 8.18553 11.6077 7.83084 10.1499C7.72764 10.1499 7.6371 12.0916 7.62558 12.2726C7.57871 13.0073 7.52398 13.7258 7.59392 14.4612C7.71449 15.7298 7.84019 17.3206 8.80684 18.2893C9.68029 19.1647 10.9485 19.3477 12.0423 19.9003C12.1831 19.9714 12.3699 20.0592 12.5714 20.1312C12.7836 20.2931 13.2045 20.4035 13.6894 20.4035C14.1979 20.4035 14.6361 20.282 14.8369 20.107C15.0131 20.0402 15.175 19.9636 15.3004 19.9003C16.3941 19.3476 17.6623 19.1647 18.5358 18.2893C19.5024 17.3206 19.6281 15.7298 19.7487 14.4612C19.8186 13.7258 19.7639 13.0073 19.7171 12.2726C19.7055 12.0916 19.615 10.1499 19.5118 10.1499Z" fill="#252E32"/>
<path d="M29.0002 7.45703H1.65738V32.7285H29.0002V7.45703Z" fill="#4A312C"/>
</g>
<mask id="mask6_42_64013" style="mask-type:alpha" maskUnits="userSpaceOnUse" x="7" y="0" width="13" height="11">
<path fill-rule="evenodd" clip-rule="evenodd" d="M9.65806 5.38799C9.6708 5.38236 9.63919 5.38019 9.56321 5.38151C9.65555 5.38132 9.68717 5.38348 9.65806 5.38799ZM8.81551 3.75979C8.81529 3.75776 8.81725 3.77544 8.81551 3.75979V3.75979ZM19.9648 7.32929C19.9374 6.98575 19.889 6.64429 19.8075 6.30863C19.7428 6.04186 19.6545 5.7873 19.55 5.53278C19.4869 5.37901 19.3395 5.1678 19.3221 5.00192C19.3051 4.83852 19.4326 4.6575 19.4598 4.46726C19.4862 4.28212 19.4817 4.08746 19.4437 3.90399C19.3574 3.48734 19.0715 3.09988 18.63 2.99128C18.5314 2.96702 18.323 2.99691 18.2533 2.93951C18.1735 2.87368 18.1179 2.64941 18.0456 2.55946C17.8394 2.30302 17.5179 2.13788 17.1788 2.19545C16.9291 2.23783 17.0725 2.28947 16.8853 2.14251C16.7812 2.06081 16.7034 1.93606 16.6023 1.84762C16.4504 1.71475 16.276 1.60101 16.0957 1.50767C15.6237 1.26345 15.0854 1.08592 14.5583 0.999391C13.5966 0.841529 12.5702 0.979159 11.638 1.22926C11.1742 1.3537 10.7072 1.51163 10.2764 1.72049C10.0917 1.81004 9.98505 1.88433 9.79245 1.90778C9.48912 1.94472 9.23223 1.94287 8.94489 2.07151C8.06077 2.46736 7.66255 3.38571 8.00659 4.26454C8.07579 4.4413 8.16949 4.59651 8.29867 4.73927C8.45617 4.91334 8.51315 4.87908 8.37749 5.07925C8.17462 5.37857 8.00359 5.69775 7.86435 6.02918C7.49884 6.89935 7.43769 7.87941 7.46149 8.80742C7.46982 9.13231 7.48376 9.46119 7.53498 9.78295C7.55711 9.92222 7.56331 10.1841 7.66778 10.2874C7.72078 10.3398 7.79629 10.3691 7.87163 10.3482C8.04868 10.2991 7.98781 10.1685 7.99192 10.0472C8.01262 9.43783 7.98467 8.89875 8.1296 8.29673C8.23664 7.85193 8.41505 7.44796 8.64626 7.05024C8.94026 6.54437 9.25763 6.10011 9.66196 5.66695C9.75702 5.56509 9.77778 5.52191 9.90525 5.51452C10.0018 5.50896 10.143 5.57505 10.2368 5.59794C10.4437 5.64836 10.651 5.69822 10.8617 5.73218C11.2491 5.79462 11.6326 5.79881 12.0234 5.78656C12.7926 5.76251 13.5651 5.70856 14.3108 5.51486C14.8061 5.38626 15.2452 5.15538 15.7196 4.98615C15.728 4.98313 15.8469 4.89841 15.8678 4.90186C15.8969 4.90666 16.0725 5.09096 16.1022 5.11418C16.3327 5.29496 16.5855 5.37085 16.8345 5.51083C17.1414 5.68343 16.8442 5.43645 17.0135 5.65155C17.0628 5.71419 17.0881 5.83035 17.1276 5.90131C17.2536 6.12739 17.4288 6.32608 17.6383 6.48374C17.8408 6.63607 18.1451 6.70965 18.2484 6.90791C18.328 7.06087 18.3549 7.26876 18.4191 7.43206C18.5877 7.86035 18.8103 8.25975 19.0329 8.66315C19.2122 8.98824 19.4083 9.27222 19.4283 9.64371C19.4352 9.77302 19.3121 10.5487 19.6119 10.3128C19.6563 10.2778 19.7521 9.88233 19.7718 9.81523C19.8516 9.54255 19.88 9.25789 19.9162 8.97773C19.9881 8.42057 20.0118 7.89045 19.9648 7.32929Z" fill="white"/>
</mask>
<g mask="url(#mask6_42_64013)">
<path fill-rule="evenodd" clip-rule="evenodd" d="M9.65806 5.38799C9.6708 5.38236 9.63919 5.38019 9.56321 5.38151C9.65555 5.38132 9.68717 5.38348 9.65806 5.38799ZM8.81551 3.75979C8.81529 3.75776 8.81725 3.77544 8.81551 3.75979V3.75979ZM19.9648 7.32929C19.9374 6.98575 19.889 6.64429 19.8075 6.30863C19.7428 6.04186 19.6545 5.7873 19.55 5.53278C19.4869 5.37901 19.3395 5.1678 19.3221 5.00192C19.3051 4.83852 19.4326 4.6575 19.4598 4.46726C19.4862 4.28212 19.4817 4.08746 19.4437 3.90399C19.3574 3.48734 19.0715 3.09988 18.63 2.99128C18.5314 2.96702 18.323 2.99691 18.2533 2.93951C18.1735 2.87368 18.1179 2.64941 18.0456 2.55946C17.8394 2.30302 17.5179 2.13788 17.1788 2.19545C16.9291 2.23783 17.0725 2.28947 16.8853 2.14251C16.7812 2.06081 16.7034 1.93606 16.6023 1.84762C16.4504 1.71475 16.276 1.60101 16.0957 1.50767C15.6237 1.26345 15.0854 1.08592 14.5583 0.999391C13.5966 0.841529 12.5702 0.979159 11.638 1.22926C11.1742 1.3537 10.7072 1.51163 10.2764 1.72049C10.0917 1.81004 9.98505 1.88433 9.79245 1.90778C9.48912 1.94472 9.23223 1.94287 8.94489 2.07151C8.06077 2.46736 7.66255 3.38571 8.00659 4.26454C8.07579 4.4413 8.16949 4.59651 8.29867 4.73927C8.45617 4.91334 8.51315 4.87908 8.37749 5.07925C8.17462 5.37857 8.00359 5.69775 7.86435 6.02918C7.49884 6.89935 7.43769 7.87941 7.46149 8.80742C7.46982 9.13231 7.48376 9.46119 7.53498 9.78295C7.55711 9.92222 7.56331 10.1841 7.66778 10.2874C7.72078 10.3398 7.79629 10.3691 7.87163 10.3482C8.04868 10.2991 7.98781 10.1685 7.99192 10.0472C8.01262 9.43783 7.98467 8.89875 8.1296 8.29673C8.23664 7.85193 8.41505 7.44796 8.64626 7.05024C8.94026 6.54437 9.25763 6.10011 9.66196 5.66695C9.75702 5.56509 9.77778 5.52191 9.90525 5.51452C10.0018 5.50896 10.143 5.57505 10.2368 5.59794C10.4437 5.64836 10.651 5.69822 10.8617 5.73218C11.2491 5.79462 11.6326 5.79881 12.0234 5.78656C12.7926 5.76251 13.5651 5.70856 14.3108 5.51486C14.8061 5.38626 15.2452 5.15538 15.7196 4.98615C15.728 4.98313 15.8469 4.89841 15.8678 4.90186C15.8969 4.90666 16.0725 5.09096 16.1022 5.11418C16.3327 5.29496 16.5855 5.37085 16.8345 5.51083C17.1414 5.68343 16.8442 5.43645 17.0135 5.65155C17.0628 5.71419 17.0881 5.83035 17.1276 5.90131C17.2536 6.12739 17.4288 6.32608 17.6383 6.48374C17.8408 6.63607 18.1451 6.70965 18.2484 6.90791C18.328 7.06087 18.3549 7.26876 18.4191 7.43206C18.5877 7.86035 18.8103 8.25975 19.0329 8.66315C19.2122 8.98824 19.4083 9.27222 19.4283 9.64371C19.4352 9.77302 19.3121 10.5487 19.6119 10.3128C19.6563 10.2778 19.7521 9.88233 19.7718 9.81523C19.8516 9.54255 19.88 9.25789 19.9162 8.97773C19.9881 8.42057 20.0118 7.89045 19.9648 7.32929Z" fill="#28354B"/>
<path d="M27.2391 0H-0.10376V29H27.2391V0Z" fill="#4A312C"/>
</g>
</g>
</g>
<defs>
<linearGradient id="paint0_linear_42_64013" x1="1.24298" y1="4.14282" x2="1.24298" y2="29" gradientUnits="userSpaceOnUse">
<stop stop-color="#6F5EE2"/>
<stop offset="1" stop-color="#6D5ED2"/>
</linearGradient>
</defs>
</svg>
