<svg width="23" height="25" viewBox="0 0 23 25" fill="none" xmlns="http://www.w3.org/2000/svg">
<path d="M19.0231 4.38901H15.6627C15.2587 4.38901 14.9312 4.06152 14.9312 3.65752V2.41162C14.9312 1.08184 16.0131 0 17.3429 0C18.6727 0 19.7546 1.08188 19.7546 2.41162V3.65747C19.7546 4.06152 19.4271 4.38901 19.0231 4.38901ZM16.3942 3.41367H18.2916V2.41162C18.2916 1.88853 17.866 1.46299 17.3429 1.46299C16.8198 1.46299 16.3942 1.88857 16.3942 2.41162V3.41367H16.3942Z" fill="#29376D"/>
<path d="M21.2103 11.8598C21.2103 11.8598 21.2103 11.8598 21.2098 11.8598H13.652C13.2482 11.8598 12.9205 11.5321 12.9205 11.1283V8.20227C12.9205 8.19641 12.9214 8.19055 12.9214 8.18469C12.9214 8.17883 12.921 8.17249 12.9214 8.16668L13.1653 3.6533C13.1843 3.26365 13.5057 2.9574 13.8958 2.9574H20.7899C21.1791 2.9574 21.5 3.26169 21.5205 3.64988L21.9418 11.0892C21.9418 11.5765 21.6041 11.8598 21.2103 11.8598Z" fill="#FF645A"/>
<path d="M21.2103 11.8598C21.2103 11.8598 21.2103 11.8598 21.2098 11.8598H14.5166V2.9574H20.7899C21.1791 2.9574 21.5 3.26169 21.5205 3.64988L21.9418 11.0892C21.9418 11.5765 21.6041 11.8598 21.2103 11.8598Z" fill="#FF3053"/>
<path d="M14.5164 5.76396V11.1283C14.5164 11.5321 14.1892 11.8598 13.785 11.8598H6.20575C5.76278 11.8598 5.41888 11.4674 5.48158 11.0254L5.8243 5.66108C5.87553 5.30068 6.18422 5.03247 6.54847 5.03247H13.785C14.1892 5.03247 14.5164 5.36016 14.5164 5.76396Z" fill="#FABE2C"/>
<path d="M18.3111 25C19.5231 25 20.5056 24.0175 20.5056 22.8056C20.5056 21.5936 19.5231 20.6111 18.3111 20.6111C17.0991 20.6111 16.1166 21.5936 16.1166 22.8056C16.1166 24.0175 17.0991 25 18.3111 25Z" fill="#29376D"/>
<path d="M10.5207 25C11.7326 25 12.7151 24.0175 12.7151 22.8056C12.7151 21.5936 11.7326 20.6111 10.5207 20.6111C9.30868 20.6111 8.32617 21.5936 8.32617 22.8056C8.32617 24.0175 9.30868 25 10.5207 25Z" fill="#47568C"/>
<path d="M18.8548 10.6041C18.8651 10.8041 18.7924 10.9996 18.6544 11.1449C18.5164 11.2897 18.3247 11.3722 18.1243 11.3722H10.9088C10.7084 11.3722 10.5172 11.2897 10.3787 11.1449C10.2407 10.9996 10.1685 10.8041 10.1783 10.6041L10.3246 7.67808C10.3441 7.28892 10.6654 6.98315 11.0551 6.98315H17.978C18.3677 6.98315 18.6891 7.28892 18.7085 7.67808L18.8548 10.6041Z" fill="#4793FF"/>
<path d="M18.8549 10.6041C18.8651 10.8041 18.7925 10.9996 18.6544 11.1449C18.5165 11.2897 18.3248 11.3722 18.1244 11.3722H14.5166V6.98315H17.9781C18.3677 6.98315 18.6891 7.28892 18.7086 7.67808L18.8549 10.6041Z" fill="#4756FF"/>
<path d="M22.8304 10.8249L21.5528 15.2456C21.209 16.6823 19.9381 17.6849 18.46 17.6849H7.77077C7.4133 16.2288 6.41555 12.7678 5.69138 9.90906H22.1224C22.3486 9.90906 22.5623 10.0139 22.7012 10.1934C22.8397 10.3724 22.8875 10.6055 22.8304 10.8249Z" fill="#DFE7F4"/>
<path d="M22.8303 10.8249L21.5526 15.2456C21.2088 16.6823 19.938 17.6849 18.4599 17.6849H14.5166V9.90906H22.1223C22.3485 9.90906 22.5622 10.0139 22.7011 10.1934C22.8395 10.3724 22.8874 10.6055 22.8303 10.8249Z" fill="#B6C0D1"/>
<path d="M10.5207 23.538C10.9252 23.538 11.2531 23.21 11.2531 22.8055C11.2531 22.401 10.9252 22.0731 10.5207 22.0731C10.1162 22.0731 9.7883 22.401 9.7883 22.8055C9.7883 23.21 10.1162 23.538 10.5207 23.538Z" fill="#F0F7FF"/>
<path d="M18.3113 23.538C18.7158 23.538 19.0437 23.21 19.0437 22.8055C19.0437 22.401 18.7158 22.0731 18.3113 22.0731C17.9067 22.0731 17.5788 22.401 17.5788 22.8055C17.5788 23.21 17.9067 23.538 18.3113 23.538Z" fill="#DFE7F4"/>
<path d="M20.9033 19.8794C20.9033 20.2832 20.5752 20.6108 20.1714 20.6108H9.68942C8.37106 20.6108 7.23825 19.7148 6.93454 18.4316C6.68259 17.5449 6.77634 17.876 3.94724 6.5708C3.8652 6.24805 3.57565 6.02295 3.24313 6.02295H0.877411C0.473602 6.02295 0.145966 5.69531 0.145966 5.2915C0.145966 4.88721 0.473602 4.56006 0.877411 4.56006H3.24313C4.24606 4.56006 5.11862 5.23877 5.3652 6.21045C5.3652 6.21045 5.71628 7.59326 6.17917 9.42139C6.90329 12.2803 7.90085 16.229 8.25827 17.6851C8.30124 17.8589 8.33493 17.998 8.35788 18.0947C8.50485 18.7148 9.05222 19.1479 9.68942 19.1479H20.1714C20.5752 19.1479 20.9033 19.4756 20.9033 19.8794Z" fill="#47568C"/>
<path d="M20.9035 19.8794C20.9035 20.2832 20.5753 20.6108 20.1715 20.6108H14.5167V19.1479H20.1715C20.5753 19.1479 20.9035 19.4756 20.9035 19.8794Z" fill="#29376D"/>
</svg>
