<svg width="24" height="24" viewBox="0 0 24 24" fill="none" xmlns="http://www.w3.org/2000/svg">
<g clip-path="url(#clip0_42_67021)">
<path d="M20.4449 3.2431L17.2161 14.3644C16.8855 15.503 16.2097 16.4811 15.2616 17.1931C14.3136 17.9051 13.1857 18.2814 12.0001 18.2814C10.8145 18.2814 9.68664 17.9051 8.73859 17.1931C7.7905 16.4811 7.11466 15.5029 6.78409 14.3644L3.55535 3.2431C3.44707 2.87016 3.66166 2.48007 4.03455 2.37183C4.40753 2.2635 4.79753 2.47814 4.90582 2.85103L8.13456 13.9723C8.63078 15.6814 10.2204 16.8752 12.0001 16.8752C13.7798 16.8752 15.3693 15.6814 15.8655 13.9723L19.0943 2.85103C19.2026 2.47814 19.5925 2.26365 19.9656 2.37183C20.3386 2.48011 20.5531 2.87021 20.4449 3.2431Z" fill="#EE5B55"/>
<path d="M6.64211 2.57812C6.64211 3.6711 5.96163 4.60457 5.00149 4.97966V23.4375H3.12649V4.97966C2.16635 4.60452 1.48587 3.6711 1.48587 2.57812C1.48587 1.15425 2.64012 0 4.06399 0C5.48786 0 6.64211 1.15425 6.64211 2.57812ZM22.5143 2.57812C22.5143 1.15425 21.3601 0 19.9362 0C18.5123 0 17.3581 1.15425 17.3581 2.57812C17.3581 3.6711 18.0386 4.60457 18.9987 4.97966V23.4375H20.8737V4.97966C21.8338 4.60457 22.5143 3.6711 22.5143 2.57812Z" fill="#FFC261"/>
<path d="M5.06402 4.03123C5.55597 4.03123 6.01563 3.89332 6.4067 3.65426C5.99885 4.54057 5.10363 5.15623 4.06399 5.15623V23.4374H3.12649V4.97965C2.16635 4.60451 1.48587 3.67109 1.48587 2.57811C1.48587 1.64619 1.9804 0.829859 2.72131 0.376953C2.57056 0.704562 2.4859 1.06883 2.4859 1.45311C2.4859 2.87698 3.64015 4.03123 5.06402 4.03123ZM20.9362 4.03123C19.5123 4.03123 18.3581 2.87698 18.3581 1.45311C18.3581 1.06883 18.4428 0.704562 18.5935 0.376953C17.8526 0.829859 17.3581 1.64619 17.3581 2.57811C17.3581 3.67109 18.0386 4.60455 18.9987 4.97965V23.4374H19.9362V5.15623C20.9758 5.15623 21.8711 4.54057 22.2789 3.65426C21.8878 3.89332 21.4281 4.03123 20.9362 4.03123Z" fill="#F3B05F"/>
<path d="M23.2963 24H16.5759C16.096 24 15.757 23.5298 15.9088 23.0745C16.0045 22.7874 16.2732 22.5937 16.5759 22.5937H17.4707C16.9908 22.5937 16.6519 22.1236 16.8037 21.6683C16.8994 21.3812 17.1681 21.1875 17.4707 21.1875H22.4015C22.7041 21.1875 22.9728 21.3811 23.0686 21.6683C23.2203 22.1236 22.8814 22.5937 22.4015 22.5937H23.2964C23.599 22.5937 23.8677 22.7874 23.9634 23.0745C24.1151 23.5298 23.7762 24 23.2963 24ZM8.09113 23.0745C7.99541 22.7874 7.72672 22.5937 7.4241 22.5937H6.52925C7.00916 22.5937 7.34806 22.1236 7.19628 21.6683C7.10056 21.3812 6.83188 21.1875 6.52925 21.1875H1.59848C1.29586 21.1875 1.02712 21.3811 0.931452 21.6683C0.779671 22.1236 1.11858 22.5937 1.59848 22.5937H0.70364C0.401015 22.5937 0.132282 22.7874 0.0366099 23.0745C-0.115124 23.5298 0.223735 24 0.703687 24H7.42414C7.90405 24 8.24291 23.5298 8.09113 23.0745Z" fill="#EA744F"/>
<path d="M7.19637 5.1683C7.34815 5.62359 7.00925 6.09375 6.52934 6.09375H1.59852C1.11862 6.09375 0.779712 5.62359 0.931493 5.1683C1.02721 4.88114 1.2959 4.6875 1.59852 4.6875H6.52934C6.83197 4.6875 7.10065 4.88114 7.19637 5.1683ZM17.4707 6.09375H22.4015C22.8814 6.09375 23.2203 5.62359 23.0685 5.1683C22.9728 4.88119 22.7041 4.6875 22.4015 4.6875H17.4707C17.1681 4.6875 16.8994 4.88114 16.8037 5.1683C16.6519 5.62359 16.9908 6.09375 17.4707 6.09375ZM23.0685 21.6683C22.9728 21.3812 22.7041 21.1875 22.4015 21.1875H17.4707C17.1681 21.1875 16.8994 21.3811 16.8037 21.6683C16.6519 22.1236 16.9908 22.5937 17.4707 22.5937H22.4015C22.8814 22.5937 23.2203 22.1236 23.0685 21.6683ZM7.19637 21.6683C7.10065 21.3812 6.83197 21.1875 6.52934 21.1875H1.59852C1.2959 21.1875 1.02716 21.3811 0.931493 21.6683C0.779712 22.1236 1.11862 22.5937 1.59852 22.5937H6.52934C7.00925 22.5937 7.34815 22.1236 7.19637 21.6683Z" fill="#F4925A"/>
</g>
<defs>
<clipPath id="clip0_42_67021">
<rect width="24" height="24" fill="white"/>
</clipPath>
</defs>
</svg>
