<svg width="25" height="25" viewBox="0 0 25 25" fill="none" xmlns="http://www.w3.org/2000/svg">
<path d="M0 5.25955V19.7406C0 20.6631 0.754834 21.4179 1.67739 21.4179H23.3226C24.2452 21.4179 25 20.6632 25 19.7406C25 19.2232 25 5.77874 25 5.25955C25 4.33699 24.2452 3.58215 23.3226 3.58215H1.67739C0.754834 3.58215 0 4.33699 0 5.25955H0Z" fill="#695D67"/>
<path d="M1.73608 19.7406V5.25955C1.73608 4.33699 2.49087 3.58215 3.41348 3.58215H1.67739C0.754834 3.58215 0 4.33699 0 5.25955V19.7406C0 20.6631 0.754834 21.4179 1.67739 21.4179H3.41348C2.49087 21.4179 1.73608 20.6631 1.73608 19.7406Z" fill="#544E55"/>
<path d="M1.63538 5.25959V19.7406C1.63538 19.7597 1.65808 19.7825 1.67727 19.7825H21.8506C21.8697 19.7825 21.8925 19.7597 21.8925 19.7406V5.25959C21.8925 5.24036 21.8698 5.21765 21.8506 5.21765C21.5635 5.21765 2.03098 5.21765 1.67727 5.21765C1.65813 5.21765 1.63538 5.2404 1.63538 5.25959Z" fill="#FF656F"/>
<path d="M3.37146 19.7406V5.25959C3.37146 5.24036 3.39416 5.21765 3.41335 5.21765C2.3863 5.21765 1.73904 5.21765 1.67727 5.21765C1.65808 5.21765 1.63538 5.2404 1.63538 5.25959V19.7406C1.63538 19.7597 1.65808 19.7825 1.67727 19.7825H3.41335C3.39421 19.7825 3.37146 19.7597 3.37146 19.7406Z" fill="#FF4756"/>
<path d="M11.7143 7.85071C9.90098 7.85071 8.41739 9.3343 8.41739 11.1476C8.41739 12.9609 9.90098 14.4445 11.7143 14.4445C13.5275 14.4445 15.0111 12.9609 15.0111 11.1476C15.0111 9.3343 13.5275 7.85071 11.7143 7.85071Z" fill="#DFEBFA"/>
<path d="M10.7815 11.1475C10.7815 9.75042 11.6626 8.54988 12.8963 8.072C12.5288 7.92966 12.1304 7.85071 11.7142 7.85071C9.90095 7.85071 8.41736 9.3343 8.41736 11.1476C8.41736 12.9609 9.90095 14.4445 11.7142 14.4445C12.1304 14.4445 12.5288 14.3655 12.8963 14.2232C11.6626 13.7452 10.7815 12.5447 10.7815 11.1475Z" fill="#B1DBFC"/>
<path d="M13.0957 10.8527L11.2217 9.72396C10.9922 9.58578 10.6998 9.75101 10.6998 10.0188V12.2764C10.6998 12.5442 10.9923 12.7095 11.2217 12.5713L13.0957 11.4425C13.3178 11.3087 13.3178 10.9866 13.0957 10.8527Z" fill="#FF656F"/>
<path d="M15.4701 16.4523H4.31982C3.9309 16.4523 3.61557 16.7676 3.61557 17.1565C3.61557 17.5454 3.93085 17.8608 4.31982 17.8608H15.4701V16.4523Z" fill="#DFEBFA"/>
<path d="M19.1086 16.4523H15.4701V17.8607H19.1086C19.4975 17.8607 19.8128 17.5454 19.8128 17.1565C19.8128 16.7676 19.4975 16.4523 19.1086 16.4523Z" fill="#FF4756"/>
<path d="M15.4702 18.6237C15.2619 18.6237 15.093 18.4548 15.093 18.2465V16.0751C15.093 15.8668 15.2619 15.6979 15.4702 15.6979C15.6786 15.6979 15.8474 15.8668 15.8474 16.0751V18.2465C15.8475 18.4548 15.6786 18.6237 15.4702 18.6237Z" fill="#FF7F87"/>
<path d="M23.2805 13.2022C23.0721 13.2022 22.9032 13.0333 22.9032 12.8249V12.1752C22.9032 11.9669 23.0721 11.798 23.2805 11.798C23.4888 11.798 23.6577 11.9669 23.6577 12.1752V12.8249C23.6577 13.0333 23.4888 13.2022 23.2805 13.2022Z" fill="#544E55"/>
</svg>
