<svg width="25" height="25" viewBox="0 0 25 25" fill="none" xmlns="http://www.w3.org/2000/svg">
<g clip-path="url(#clip0_42_67030)">
<path d="M21.8402 12.5C21.8402 12.1322 21.8187 11.7694 21.7772 11.4127C21.7237 10.9541 21.9055 10.4994 22.2526 10.1949L23.6815 8.94123C24.1665 8.51573 24.2755 7.80324 23.9399 7.25221L22.4116 4.74314C22.076 4.19211 21.3929 3.96206 20.7923 4.19779L19.011 4.89691C18.5799 5.06613 18.0954 5.00686 17.7113 4.74809C17.2986 4.4701 16.8626 4.22422 16.4067 4.01397C15.9872 3.82049 15.6859 3.43779 15.6064 2.98274L15.2771 1.09931C15.166 0.463726 14.6142 0 13.969 0H11.0311C10.3859 0 9.83413 0.463725 9.72305 1.09926L9.39379 2.9827C9.31423 3.43774 9.013 3.82049 8.59349 4.01392C8.13761 4.22417 7.70153 4.47005 7.28889 4.74804C6.90477 5.00676 6.42021 5.06603 5.98913 4.89686L4.20781 4.19774C3.60722 3.96206 2.92413 4.19211 2.58854 4.74309L1.06031 7.25216C0.724719 7.80319 0.83369 8.51569 1.31869 8.94118L2.74761 10.1948C3.09472 10.4993 3.27643 10.9541 3.223 11.4127C3.18143 11.7694 3.15996 12.1322 3.15996 12.4999C3.15996 12.8677 3.18148 13.2305 3.223 13.5872C3.27643 14.0458 3.09472 14.5006 2.74761 14.8051L1.31869 16.0587C0.83369 16.4842 0.724719 17.1967 1.06031 17.7477L2.58854 20.2568C2.92413 20.8078 3.60727 21.0379 4.20781 20.8022L5.98908 20.103C6.42021 19.9338 6.90477 19.9931 7.28884 20.2519C7.70148 20.5299 8.13756 20.7757 8.59344 20.986C9.01295 21.1795 9.31418 21.5622 9.39374 22.0172L9.723 23.9006C9.83413 24.5363 10.3859 24.8039 11.0311 24.8039H13.969C14.6142 24.8039 15.166 24.5363 15.2771 23.9007L15.6063 22.0173C15.6859 21.5623 15.9871 21.1795 16.4066 20.9861C16.8625 20.7758 17.2986 20.53 17.7112 20.252C18.0954 19.9932 18.5799 19.934 19.011 20.1031L20.7923 20.8023C21.3929 21.038 22.0759 20.8079 22.4115 20.2569L23.9398 17.7478C24.2754 17.1968 24.1664 16.4843 23.6814 16.0588L22.2525 14.8052C21.9054 14.5007 21.7236 14.0459 21.7771 13.5873C21.8187 13.2306 21.8402 12.8678 21.8402 12.5Z" fill="url(#paint0_linear_42_67030)"/>
<path d="M12.5 20.1348C16.7166 20.1348 20.1349 16.7166 20.1349 12.5C20.1349 8.28335 16.7166 4.86511 12.5 4.86511C8.28341 4.86511 4.86517 8.28335 4.86517 12.5C4.86517 16.7166 8.28341 20.1348 12.5 20.1348Z" fill="url(#paint1_linear_42_67030)"/>
<path d="M13.9689 25C14.6141 25 15.1659 24.5363 15.277 23.9008L15.6062 22.0173C15.6858 21.5623 15.987 21.1795 16.4065 20.9861C16.8624 20.7759 17.2985 20.53 17.7111 20.252C18.0952 19.9933 18.5798 19.934 19.0109 20.1032L20.7922 20.8023C21.3927 21.038 22.0758 20.8079 22.4114 20.257L23.9397 17.7479C24.2752 17.1969 24.1663 16.4844 23.6813 16.0589L22.2524 14.8052C21.9052 14.5007 21.7235 14.046 21.777 13.5873C21.8019 13.3735 21.8186 13.1572 21.8288 12.9393L17.123 8.23346C16.8302 7.91641 16.5053 7.6294 16.1533 7.37793C15.8691 7.17484 15.4739 7.38057 15.4739 7.72994V11.8825C15.4739 12.3117 15.2788 12.7125 14.9521 12.9785C14.8904 12.9193 9.47329 7.5115 9.42815 7.4569C9.29266 7.29307 9.04123 7.3367 8.8431 7.47842C7.24506 8.6217 6.303 10.3964 6.30677 12.5117C6.31001 14.3328 6.98623 15.9694 8.22212 17.1151L9.57506 18.4729L9.62408 21.632C9.62408 22.3926 9.59187 23.1517 9.72285 23.9009C9.83403 24.5363 10.3858 25 11.031 25H13.9689Z" fill="url(#paint2_linear_42_67030)"/>
<path d="M23.9397 17.7475L22.4118 20.2568C22.076 20.8078 21.3927 21.0377 20.7922 20.8024L19.0108 20.1029C18.5799 19.9338 18.0951 19.9931 17.7113 20.2519C17.2985 20.5299 16.8623 20.776 16.4064 20.9863C15.9873 21.1794 15.6858 21.5622 15.6064 22.0171L15.277 23.901C15.1657 24.5363 14.6142 24.8529 13.9691 24.8529H11.0309C10.7083 24.8529 10.4093 24.7372 10.177 24.5417C10.0583 24.4421 9.95737 24.4691 9.87943 24.3333C10.075 24.4461 10.3015 24.5098 10.5407 24.5098H13.4789C14.124 24.5098 14.6755 24.0461 14.7868 23.4108C14.852 23.0363 14.9015 22.6588 14.9343 22.2804C14.9672 21.9019 14.9838 21.5216 14.9838 21.1417V17.5549C16.9584 16.4936 18.301 14.4083 18.301 12.0098C18.301 10.3995 17.6961 8.93037 16.7005 7.81763C16.8481 7.949 16.9887 8.08773 17.1231 8.23331L21.8289 12.9392C21.8186 13.1573 21.802 13.3735 21.777 13.5872C21.7236 14.0461 21.9054 14.5005 22.2525 14.8054L23.6814 16.0588C24.1662 16.4843 24.2755 17.1966 23.9397 17.7475Z" fill="url(#paint3_linear_42_67030)"/>
<path d="M15.2769 23.9007C15.4079 23.1515 15.4738 22.3924 15.4738 21.6318V16.4379H9.52606V21.6318C9.52606 22.3924 9.5919 23.1515 9.72288 23.9007C9.834 24.5362 10.3858 25 11.031 25H13.9689C14.6141 25 15.1659 24.5362 15.2769 23.9007Z" fill="url(#paint4_linear_42_67030)"/>
<path d="M9.52606 18.0469L15.2914 23.8123C15.4123 23.0918 15.4738 22.3625 15.4738 21.6318V16.4379H9.52606V18.0469Z" fill="url(#paint5_linear_42_67030)"/>
<path d="M18.7913 12.5C18.7913 15.9745 15.9747 18.7911 12.5002 18.7912C9.02571 18.7912 6.21517 15.986 6.20899 12.5115C6.20522 10.3962 7.24532 8.52346 8.84336 7.38018C9.12895 7.17586 9.5261 7.3788 9.5261 7.72993V11.8824C9.5261 12.3874 9.79551 12.854 10.2329 13.1066L11.7933 14.0076C12.2307 14.2601 12.7696 14.2601 13.207 14.0076L14.7674 13.1066C15.2048 12.8541 15.4742 12.3874 15.4742 11.8824V7.72978C15.4742 7.38047 15.8694 7.17473 16.1537 7.37777C17.7507 8.5188 18.7913 10.388 18.7913 12.5Z" fill="url(#paint6_linear_42_67030)"/>
<path d="M7.84426 13.0299C7.84426 13.8204 8.26602 14.551 8.95068 14.9463L11.3935 16.3567C12.0782 16.7521 12.9218 16.7521 13.6065 16.3567L16.0493 14.9463C16.734 14.551 17.1557 13.8204 17.1557 13.0299V8.26957C16.8544 7.93824 16.5187 7.63878 16.1535 7.3778C15.8692 7.17471 15.474 7.38045 15.474 7.72981V11.8824C15.474 12.3874 15.2046 12.8541 14.7672 13.1066L13.2068 14.0076C12.7694 14.2602 12.2305 14.2602 11.7931 14.0076L10.2327 13.1066C9.79533 12.8541 9.52592 12.3875 9.52592 11.8824V7.72996C9.52592 7.37878 9.12877 7.17589 8.84318 7.38021C8.47921 7.6406 8.14455 7.93922 7.84421 8.26952V13.0299H7.84426Z" fill="url(#paint7_linear_42_67030)"/>
</g>
<defs>
<linearGradient id="paint0_linear_42_67030" x1="6.19624" y1="6.19618" x2="19.3876" y2="19.3876" gradientUnits="userSpaceOnUse">
<stop stop-color="#7FAEF4"/>
<stop offset="1" stop-color="#4C8DF1"/>
</linearGradient>
<linearGradient id="paint1_linear_42_67030" x1="21.1174" y1="21.1174" x2="3.19277" y2="3.19271" gradientUnits="userSpaceOnUse">
<stop stop-color="#7FAEF4"/>
<stop offset="1" stop-color="#4C8DF1"/>
</linearGradient>
<linearGradient id="paint2_linear_42_67030" x1="13.6021" y1="16.2683" x2="4.95628" y2="11.9698" gradientUnits="userSpaceOnUse">
<stop stop-color="#4C8DF1" stop-opacity="0"/>
<stop offset="0.5631" stop-color="#466CC8" stop-opacity="0.563"/>
<stop offset="1" stop-color="#4256AC"/>
</linearGradient>
<linearGradient id="paint3_linear_42_67030" x1="20.5244" y1="19.6198" x2="13.6127" y2="16.2865" gradientUnits="userSpaceOnUse">
<stop stop-color="#4C8DF1" stop-opacity="0"/>
<stop offset="0.5631" stop-color="#466CC8" stop-opacity="0.563"/>
<stop offset="1" stop-color="#4256AC"/>
</linearGradient>
<linearGradient id="paint4_linear_42_67030" x1="12.2811" y1="20.0227" x2="16.0326" y2="23.7742" gradientUnits="userSpaceOnUse">
<stop stop-color="#E3E5E4"/>
<stop offset="1" stop-color="#CBD0E4"/>
</linearGradient>
<linearGradient id="paint5_linear_42_67030" x1="14.3261" y1="21.3754" x2="11.8425" y2="15.7545" gradientUnits="userSpaceOnUse">
<stop stop-color="#CBD0E4" stop-opacity="0"/>
<stop offset="1" stop-color="#6A7D83"/>
</linearGradient>
<linearGradient id="paint6_linear_42_67030" x1="10.1954" y1="10.1969" x2="18.4104" y2="18.4119" gradientUnits="userSpaceOnUse">
<stop stop-color="#E3E5E4"/>
<stop offset="1" stop-color="#CBD0E4"/>
</linearGradient>
<linearGradient id="paint7_linear_42_67030" x1="15.9926" y1="14.5956" x2="6.67876" y2="5.28173" gradientUnits="userSpaceOnUse">
<stop stop-color="#E3E5E4"/>
<stop offset="1" stop-color="#CBD0E4"/>
</linearGradient>
<clipPath id="clip0_42_67030">
<rect width="25" height="25" fill="white"/>
</clipPath>
</defs>
</svg>
