<svg width="23" height="23" viewBox="0 0 23 23" fill="none" xmlns="http://www.w3.org/2000/svg">
<path d="M14.654 19.1579L14.5254 19.0519V18.5563L14.659 18.4637L14.6617 18.1007C14.5754 17.233 13.9073 16.5366 13.0439 16.4144L9.07577 15.9575C8.1604 15.828 7.703 15.5213 6.90501 15.0545C5.81557 14.4172 4.57613 14.0813 3.31396 14.0813H1.89124V19.3641L7.07787 21.2947C7.51837 21.4586 7.98462 21.5426 8.45464 21.5426H13.7999C14.5479 21.5426 15.2806 21.33 15.9124 20.9296L18.979 18.9864C19.6502 18.5611 20.3062 18.0279 20.3209 16.6627L14.654 19.1579Z" fill="#FFDDCE"/>
<path d="M8.45468 22.9961H13.7999C14.548 22.9961 15.2806 22.7835 15.9124 22.3831L22.6052 18.1422C23.0467 17.7501 23.1286 17.0912 22.7964 16.603C22.433 16.0688 21.8317 15.976 21.17 16.2888L20.0693 16.7735C20.0693 17.5771 19.6579 18.3248 18.9791 18.755L15.9124 20.6982C15.2806 21.0986 14.5479 21.3112 13.7999 21.3112H8.45468C7.98466 21.3112 7.51842 21.2272 7.07792 21.0632L1.89124 19.1327V20.8176L7.07787 22.7482C7.51842 22.9121 7.98466 22.9961 8.45468 22.9961Z" fill="#FFCBBE"/>
<path d="M14.1752 17.0116L14.175 17.0371L14.1919 17.0297C14.1865 17.0235 14.1808 17.0177 14.1752 17.0116Z" fill="#F5DBCC"/>
<path d="M3.00729 21.8508C3.00729 22.2271 2.70223 22.5322 2.32592 22.5322H0.681375C0.305064 22.5322 0 22.2271 0 21.8508V13.5073C0 13.131 0.305064 12.8259 0.681375 12.8259H2.32592C2.70223 12.8259 3.00729 13.131 3.00729 13.5073V21.8508Z" fill="#407093"/>
<path d="M15.3272 6.69988C15.3272 3.67942 13.3734 1.11595 10.6608 0.202827C10.4502 0.13194 10.2241 0.121563 10.0074 0.170887C9.14463 0.367241 8.34516 0.730165 7.64474 1.22417L6.43441 2.32031C5.41841 3.49439 4.80374 5.02537 4.80374 6.69988C4.80374 9.88529 7.02805 12.5509 10.0081 13.229C10.2246 13.2782 10.4506 13.2677 10.661 13.1969C13.3735 12.2837 15.3272 9.72025 15.3272 6.69988Z" fill="#E28086"/>
<path d="M11.4999 0.00378418C10.9965 0.00378418 10.5062 0.0597119 10.0346 0.165054C13.0279 0.833356 15.2654 3.50513 15.2654 6.69993C15.2654 9.89473 13.0279 12.5665 10.0346 13.2348C10.5062 13.3401 10.9965 13.3961 11.4999 13.3961C15.198 13.3961 18.196 10.3981 18.196 6.69997C18.196 3.00182 15.198 0.00378418 11.4999 0.00378418Z" fill="#DD636E"/>
<path d="M13.967 7.51702L14.1673 3.79484C14.1727 3.69395 14.0894 3.61066 13.9885 3.6161L10.2664 3.81636C10.1196 3.82426 10.0515 4.00215 10.1554 4.1061L10.9758 4.92651C11.0421 4.99286 11.0421 5.1004 10.9758 5.16675L8.18181 7.96071C8.11546 8.02706 8.11546 8.13461 8.18181 8.20096L9.58252 9.60166C9.64887 9.66801 9.75641 9.66801 9.82276 9.60166L12.6167 6.8077C12.6831 6.74136 12.7906 6.74136 12.857 6.8077L13.6774 7.62811C13.7812 7.73193 13.9591 7.66374 13.967 7.51702Z" fill="#F4FBFF"/>
<path d="M13.6295 18.2551H9.70718C9.52112 18.2551 9.37027 18.406 9.37027 18.592C9.37027 18.7781 9.52112 18.929 9.70718 18.929H13.6295V18.2551Z" fill="#FFCBBE"/>
</svg>
