<svg width="23" height="20" viewBox="0 0 23 20" fill="none" xmlns="http://www.w3.org/2000/svg">
<path fill-rule="evenodd" clip-rule="evenodd" d="M7.5 15.8333L11 12.4033C10.545 12.3566 10.2067 12.3333 9.83333 12.3333C6.71833 12.3333 0.5 13.8966 0.5 17V19.3333H11L7.5 15.8333ZM9.83333 9.99996C12.4117 9.99996 14.5 7.91162 14.5 5.33329C14.5 2.75496 12.4117 0.666626 9.83333 0.666626C7.255 0.666626 5.16667 2.75496 5.16667 5.33329C5.16667 7.91162 7.255 9.99996 9.83333 9.99996Z" fill="white"/>
<path fill-rule="evenodd" clip-rule="evenodd" d="M15.0483 19.9166L11 15.8333L12.6333 14.1883L15.0483 16.6149L21.0333 10.5833L22.6667 12.2283L15.0483 19.9166Z" fill="white"/>
</svg>
