<svg width="22" height="22" viewBox="0 0 22 22" fill="none" xmlns="http://www.w3.org/2000/svg">
<path d="M19.9375 6.87512H19.25V4.81262C19.25 4.43175 18.942 4.12512 18.5625 4.12512H2.0625C0.925375 4.12512 0 5.0505 0 6.18762V18.5626C0 19.6997 0.925375 20.6251 2.0625 20.6251H19.9375C20.317 20.6251 20.625 20.3171 20.625 19.9376V7.56262C20.625 7.18175 20.317 6.87512 19.9375 6.87512Z" fill="#2196F3"/>
<path d="M2.0625 5.50012H17.875V6.87512H2.0625C1.683 6.87512 1.375 6.56712 1.375 6.18762C1.375 5.80812 1.683 5.50012 2.0625 5.50012Z" fill="#FAFAFA"/>
<path d="M21.3125 15.1251H17.1875C16.049 15.1251 15.125 14.2011 15.125 13.0626C15.125 11.9227 16.049 11.0001 17.1875 11.0001H21.3125C21.692 11.0001 22 11.3081 22 11.6876V14.4376C22 14.8171 21.692 15.1251 21.3125 15.1251Z" fill="#1976D2"/>
<path d="M17.6124 6.8751L15.0521 1.7546C14.8816 1.41498 14.4691 1.27885 14.1295 1.4466L3.27524 6.8751H17.6124Z" fill="#4CAF50"/>
<path d="M1.375 6.8751H14.8624L12.3021 1.7546C12.1316 1.41497 11.7191 1.27885 11.3795 1.44797L1.375 6.45023V6.8751Z" fill="#81C784"/>
</svg>
