<svg width="25" height="25" viewBox="0 0 25 25" fill="none" xmlns="http://www.w3.org/2000/svg">
<path d="M12.5 23.4863C12.3276 23.4863 12.156 23.4263 12.0179 23.3054C10.9522 22.3734 9.93867 21.5094 8.98525 20.6968C3.60435 16.1113 0 13.0815 0 8.66768C0 4.58926 2.88267 1.51367 6.64062 1.51367C9.60249 1.51367 11.5037 3.58291 12.5 5.44614C13.4963 3.58291 15.3975 1.51367 18.3594 1.51367C22.1173 1.51367 25 4.58926 25 8.66768C25 13.0815 21.3957 16.1113 16.0147 20.6968C15.0613 21.5094 14.0478 22.3734 12.9821 23.3054C12.844 23.4263 12.6724 23.4863 12.5 23.4863Z" fill="#FD3018"/>
<path d="M12.9821 23.3054C14.0478 22.3734 15.0613 21.5094 16.0147 20.6968C21.3957 16.1113 25 13.0815 25 8.66768C25 4.58926 22.1173 1.51367 18.3594 1.51367C15.3975 1.51367 13.4963 3.58291 12.5 5.44614V23.4863C12.6724 23.4863 12.844 23.4263 12.9821 23.3054Z" fill="#E61E14"/>
</svg>
